<?xml version="1.0" encoding="utf-8"?>
<!-- Generator: Adobe Illustrator 24.3.0, SVG Export Plug-In . SVG Version: 6.00 Build 0)  -->
<svg version="1.1" id="Layer_1" xmlns="http://www.w3.org/2000/svg" xmlns:xlink="http://www.w3.org/1999/xlink" x="0px" y="0px"
	 viewBox="0 0 64 64" style="enable-background:new 0 0 64 64;" xml:space="preserve">
<style type="text/css">
	.st0{fill-rule:evenodd;clip-rule:evenodd;fill:#FFFFFF;}
</style>
<path class="st0" d="M16,25.6c2.1-8.5,7.5-12.8,16-12.8c12.8,0,14.4,9.6,20.8,11.2c4.3,1.1,8-0.5,11.2-4.8C61.9,27.7,56.5,32,48,32
	c-12.8,0-14.4-9.6-20.8-11.2C22.9,19.7,19.2,21.3,16,25.6z M0,44.8C2.1,36.3,7.5,32,16,32c12.8,0,14.4,9.6,20.8,11.2
	c4.3,1.1,8-0.5,11.2-4.8c-2.1,8.5-7.5,12.8-16,12.8c-12.8,0-14.4-9.6-20.8-11.2C6.9,38.9,3.2,40.5,0,44.8z"/>
</svg>
